<?xml version="1.0" encoding="utf-8"?>
<!-- Svg Vector Icons : http://www.onlinewebfonts.com/icon -->
<!DOCTYPE svg PUBLIC "-//W3C//DTD SVG 1.1//EN" "http://www.w3.org/Graphics/SVG/1.1/DTD/svg11.dtd">
<svg version="1.1" xmlns="http://www.w3.org/2000/svg" xmlns:xlink="http://www.w3.org/1999/xlink" x="0px" y="0px" viewBox="0 0 1000 1000" enable-background="new 0 0 1000 1000" xml:space="preserve">
<metadata> Svg Vector Icons : http://www.onlinewebfonts.com/icon </metadata>
<g><g transform="translate(0.000000,511.000000) scale(0.100000,-0.100000)"><path d="M4860.1,4993.6C3489.3,4829.8,2504.8,4247,2039.9,3330.2c-172.4-342.7-255.4-657-344.9-1309.7c-78.6-571.9-259.8-1170-449.7-1480c-41.5-69.9-135.3-192.1-207.4-272.8c-152.8-165.9-194.3-251-194.3-386.4c0-113.5,67.7-229.2,161.5-272.9c67.7-32.7,283.8-67.7,423.5-69.9c109.1,0,113.5-15.3,48-261.9c-24-89.5-43.7-196.5-43.7-235.7c0-102.6,61.1-222.7,135.3-264.1c48-26.2,58.9-45.8,48-78.6c-8.7-24-19.6-98.2-24-163.7c-8.7-111.3-4.4-128.8,69.9-222.6c76.4-102.6,78.6-104.8,96-392.9c15.3-248.8,26.2-305.6,74.2-403.8c104.8-203,279.4-340.5,526.1-410.4c131-39.3,139.7-39.3,724.7,2.2c283.8,19.7,318.7,4.4,528.2-242.3c323.1-375.4,344.9-434.4,375.4-1025.9c19.6-395.1,58.9-606.8,115.7-628.7c17.5-6.5,790.2,213.9,1720.1,488.9c929.9,275,1724.5,510.8,1765.9,521.7l78.6,21.8v528.3c-2.2,580.6,24,805.5,139.7,1279.1c122.2,504.2,257.6,820.8,600.3,1412.3c659.2,1139.4,722.5,1292.2,746.5,1800.8c19.6,414.7-76.4,1274.8-181.2,1648c-192.1,685.4-700.7,1222.4-1538.9,1624c-397.3,192.1-801.1,323.1-1322.8,430C5910,5006.7,5117.7,5026.3,4860.1,4993.6z M6595.4,3568.2c28.4-28.4,67.7-109.2,87.3-179c65.5-235.7,65.5-235.7,135.3-255.4c56.7-17.5,87.3-8.7,218.3,69.9c181.2,109.1,266.3,115.7,334,30.5c61.1-76.4,48-141.9-63.3-327.4c-76.4-126.6-82.9-148.4-61.1-205.2c26.2-65.5,34.9-69.9,279.4-137.5c148.4-41.5,200.8-93.9,189.9-189.9c-8.7-91.7-80.8-144.1-270.7-192.1c-122.2-30.6-157.2-48-187.7-102.6c-37.1-63.3-37.1-65.5,52.4-216.1c111.3-192.1,126.6-272.9,63.3-336.1c-69.8-69.9-161.5-56.8-344.9,43.7c-146.3,80.7-168.1,87.3-222.7,63.3c-54.6-21.8-67.7-48-111.3-209.5c-65.5-253.2-161.5-327.4-290.3-227c-39.3,32.7-67.7,91.7-104.8,231.4c-67.7,253.2-96.1,266.3-329.6,141.9c-174.6-93.9-277.2-111.3-331.8-56.8c-69.8,72-65.5,122.2,39.3,320.9c120,229.2,113.5,283.8-30.6,320.9c-48,13.1-124.4,34.9-172.5,45.8c-126.6,32.7-198.6,98.2-198.6,183.4c0,100.4,56.7,144.1,268.5,198.6c141.9,37.1,185.5,58.9,209.6,102.6c28.4,50.2,26.2,65.5-61.1,216.1c-117.9,203-128.8,255.4-67.7,331.8c67.7,87.3,152.8,78.6,347.1-37.1c152.8-91.7,165.9-96.1,220.4-67.7c48,24,67.7,58.9,96.1,176.8c45.8,183.3,89.5,268.5,150.6,292.5C6514.7,3629.3,6538.7,3624.9,6595.4,3568.2z M4526.1,1848.1c26.2-28.4,67.7-131,93.9-229.2c43.7-157.1,56.8-179,107-187.7c48-8.7,80.8,13.1,203,128.8c159.4,155,240.1,179,323.1,96c54.6-54.6,54.6-120.1-2.2-323.1c-43.7-159.3-43.7-163.7-4.4-203c39.3-41.5,43.7-39.3,198.6,2.2c198.6,54.6,277.2,54.6,331.8,0c83-82.9,58.9-163.7-96.1-323.1c-117.9-122.2-137.5-155-128.8-203c8.7-52.4,30.5-63.3,192.1-104.8c196.5-52.4,272.9-109.1,272.9-203c0-85.1-100.4-155-288.2-203c-146.3-34.9-168.1-48-176.8-96c-8.7-45.9,13.1-83,128.8-203c155-159.3,179-240.1,96.1-323.1c-54.6-54.6-144.1-54.6-338.3,0c-148.4,41.5-152.8,41.5-192.1,2.2c-39.3-39.3-39.3-43.7,4.4-207.4c26.2-91.7,45.8-189.9,45.8-220.5c0-78.6-72-141.9-163.7-141.9c-65.5,0-96,19.7-205.2,131c-89.5,91.7-146.3,131-185.5,131c-67.7,0-72-6.5-124.4-203c-52.4-187.7-107-255.4-209.6-255.4c-89.5,0-126.6,52.4-192.1,277.2c-67.7,235.7-102.6,242.3-299.1,56.7c-115.7-111.3-157.2-137.5-216.1-137.5c-152.8,0-183.4,109.1-111.3,375.5c41.5,144.1,41.5,146.3-2.2,187.7c-41.5,43.7-43.7,43.7-192.1,2.2c-211.7-58.9-290.3-54.6-347.1,17.5c-65.5,82.9-43.7,146.3,111.3,301.2c185.5,187.7,176.8,248.8-45.8,305.6c-251,65.5-331.8,137.5-283.8,261.9c24,63.3,93.9,100.4,283.8,152.8c220.5,58.9,227,98.2,45.8,288.1c-144.1,152.8-174.6,224.8-122.2,303.4c50.2,78.6,131,87.3,327.4,37.1c172.4-45.8,174.6-45.8,218.3-4.4c41.5,41.5,41.5,45.8,4.4,187.7c-69.9,270.7-37.1,377.6,111.3,377.6c61.1,0,98.2-24,218.3-137.5c120.1-115.7,155-137.5,198.6-126.6c54.6,15.3,58.9,21.8,122.2,248.8c19.6,69.9,54.6,146.3,76.4,168.1C4373.3,1911.4,4469.4,1907,4526.1,1848.1z"/><path d="M6320.4,2653.6c-45.9-30.6-89.5-89.5-115.7-150.6c-37.1-91.7-39.3-113.5-15.3-194.3c34.9-117.9,122.2-205.2,240.1-240.1c80.7-24,102.6-21.8,194.3,15.3c135.3,56.7,200.8,152.8,200.8,301.2c0,124.4-45.8,211.7-144,277.2C6588.9,2721.2,6416.4,2719.1,6320.4,2653.6z"/><path d="M4268.6,752.3c-131-45.8-218.3-122.2-272.9-240.1c-117.9-251-24-523.9,218.3-637.4c205.2-96.1,408.2-54.6,561,115.7c170.3,189.9,161.5,451.9-21.8,639.6C4613.4,776.3,4447.5,817.8,4268.6,752.3z"/></g></g>
</svg>